<?xml version="1.0" standalone="no"?>
<!DOCTYPE svg PUBLIC "-//W3C//DTD SVG 20010904//EN"
 "http://www.w3.org/TR/2001/REC-SVG-20010904/DTD/svg10.dtd">
<svg version="1.0" xmlns="http://www.w3.org/2000/svg"
 width="180.000000pt" height="180.000000pt" viewBox="0 0 180.000000 180.000000"
 preserveAspectRatio="xMidYMid meet">

<g transform="translate(0.000000,180.000000) scale(0.100000,-0.100000)"
fill="#000000" stroke="none">
<path d="M845 1751 c-103 -64 -180 -222 -239 -493 l-6 -28 161 0 161 0 -8 28
c-16 50 -9 144 13 187 26 49 102 122 137 131 14 3 26 8 26 10 0 11 -56 93 -84
122 -59 63 -108 76 -161 43z"/>
<path d="M615 1721 c-67 -24 -148 -66 -215 -111 -78 -53 -208 -194 -252 -274
-64 -117 -79 -106 146 -106 l195 0 11 58 c29 146 85 305 139 393 18 28 31 53
29 54 -2 2 -26 -5 -53 -14z"/>
<path d="M1132 1732 c2 -4 20 -37 40 -73 33 -57 43 -67 79 -78 50 -15 123 -81
152 -136 22 -43 29 -137 13 -187 l-8 -28 146 0 c80 0 146 2 146 5 0 12 -54
112 -83 155 -46 68 -155 177 -221 222 -83 57 -275 144 -264 120z"/>
<path d="M1100 1571 c-50 -16 -87 -40 -122 -79 -100 -110 -74 -242 91 -472 94
-132 98 -132 195 6 130 183 168 291 137 386 -16 48 -75 115 -124 139 -44 23
-137 33 -177 20z m105 -167 c8 -4 23 -20 31 -36 45 -86 -68 -161 -130 -87 -14
17 -26 37 -26 45 0 21 27 71 42 77 19 8 64 8 83 1z"/>
<path d="M1127 1380 c-44 -35 -32 -93 24 -113 32 -11 41 6 29 58 -17 74 -22
79 -53 55z"/>
<path d="M55 1108 c-25 -70 -30 -250 -11 -358 l11 -65 208 -3 208 -2 -3 152
c-2 84 -1 182 1 218 l5 65 -207 3 c-161 2 -208 0 -212 -10z"/>
<path d="M583 1108 c-4 -7 -8 -101 -8 -208 0 -107 4 -201 8 -207 12 -19 626
-19 632 0 2 6 6 65 10 130 l7 119 -32 -23 c-29 -22 -33 -22 -57 -9 -14 8 -58
59 -96 113 l-69 97 -194 0 c-143 0 -195 -3 -201 -12z"/>
<path d="M1342 1107 c-7 -8 -12 -85 -12 -218 l-2 -204 206 -3 205 -2 12 42
c15 51 17 294 3 353 l-10 40 -196 3 c-153 2 -198 0 -206 -11z"/>
<path d="M100 564 c0 -3 19 -42 42 -86 44 -86 162 -220 246 -282 75 -54 267
-144 280 -131 2 1 -11 24 -27 51 -51 79 -113 255 -141 397 l-11 57 -195 0
c-107 0 -194 -3 -194 -6z"/>
<path d="M606 543 c52 -238 118 -389 203 -466 68 -61 114 -61 182 0 85 77 151
228 203 466 l6 27 -300 0 -300 0 6 -27z"/>
<path d="M1301 513 c-20 -103 -91 -309 -132 -378 -21 -37 -39 -69 -39 -71 0
-6 107 34 160 61 163 82 302 221 384 382 14 29 26 55 26 58 0 3 -87 5 -194 5
l-195 0 -10 -57z"/>
</g>
</svg>
